<?xml version="1.0" encoding="UTF-8" standalone="no"?>
<svg
   width="413.5"
   height="262.4"
   version="1.1"
   viewBox="0 0 413.5 262.4"
   xml:space="preserve"
   id="svg15"
   sodipodi:docname="bela_logo_white_text_centre.svg"
   inkscape:version="1.4.2 (1:1.4.2+202505120737+ebf0e940d0)"
   xmlns:inkscape="http://www.inkscape.org/namespaces/inkscape"
   xmlns:sodipodi="http://sodipodi.sourceforge.net/DTD/sodipodi-0.dtd"
   xmlns="http://www.w3.org/2000/svg"
   xmlns:svg="http://www.w3.org/2000/svg"><defs
     id="defs15" /><sodipodi:namedview
     id="namedview15"
     pagecolor="#000000"
     bordercolor="#000000"
     borderopacity="0.25"
     inkscape:showpageshadow="2"
     inkscape:pageopacity="0.0"
     inkscape:pagecheckerboard="0"
     inkscape:deskcolor="#d1d1d1"
     inkscape:zoom="1.7897107"
     inkscape:cx="-9.4987418"
     inkscape:cy="94.708043"
     inkscape:window-width="2560"
     inkscape:window-height="1528"
     inkscape:window-x="0"
     inkscape:window-y="0"
     inkscape:window-maximized="1"
     inkscape:current-layer="svg15" /><style
     type="text/css"
     id="style1">
	.st0{fill:#FFFFFF;}
</style><g
     id="BELA"
     transform="translate(-350.23 -241.7)"
     style="fill:#ffffff"><g
       id="B"
       style="fill:#ffffff"><path
         id="path1"
         d="M 435.12453 291.81719 C 428.95988 291.78984 423.5132 296.08711 422.2007 302.29961 L 400.49953 406.50078 C 399.69953 410.40078 400.7007 414.40078 403.2007 417.50078 C 405.7007 420.50078 409.39992 422.29961 413.39992 422.29961 L 454.09914 422.29961 C 460.39914 422.29961 465.79953 417.89961 466.99953 411.79961 L 481.39992 342.39922 C 482.19992 338.49922 481.2007 334.49922 478.7007 331.39922 C 476.2007 328.39922 472.49953 326.60039 468.49953 326.60039 L 444.09914 326.60039 L 447.99953 307.7 C 449.49953 300.6 444.90031 293.60039 437.80031 292.10039 C 436.90031 291.91289 436.0052 291.82109 435.12453 291.81719 z M 431.89406 297.32305 C 432.1259 297.3248 432.36164 297.34922 432.59914 297.39922 C 434.49914 297.79922 435.70031 299.60078 435.30031 301.50078 L 414.49953 401.60039 L 448.09914 401.60039 L 460.99953 339.00078 L 434.80031 339.00078 C 432.90031 339.00078 431.30031 337.40078 431.30031 335.50078 C 431.30031 333.60078 432.90031 332.00078 434.80031 332.00078 L 465.30031 332.00078 C 466.30031 332.00078 467.29953 332.49961 467.99953 333.29961 C 468.59953 334.09961 468.9007 335.2 468.7007 336.2 L 454.39992 405.7 C 454.09992 407.4 452.69953 408.60039 450.99953 408.60039 L 410.30031 408.60039 C 409.30031 408.60039 408.19914 408.09961 407.59914 407.29961 C 406.99914 406.49961 406.69992 405.39922 406.89992 404.39922 L 428.49953 300.10039 C 428.84953 298.43789 430.27121 297.31074 431.89406 297.32305 z M 438.49953 352.79961 L 452.30031 352.79961 L 443.39992 395.89922 L 429.59914 395.89922 L 438.49953 352.79961 z "
         style="fill:#ffffff" /></g><g
       id="E"
       style="fill:#ffffff"><path
         id="path3"
         d="M 508.09914 291.7 C 501.89914 291.7 496.5007 296.1 495.2007 302.2 L 473.2007 406.39922 C 472.3007 410.29922 473.30031 414.29922 475.80031 417.39922 C 478.30031 420.49922 481.99953 422.29961 485.99953 422.29961 L 524.99953 422.29961 C 532.19953 422.29961 538.09914 416.40039 538.09914 409.10039 C 538.09914 401.80039 532.19992 395.89922 524.89992 395.89922 L 502.2007 395.89922 L 503.99953 387.50078 L 534.49953 387.50078 C 540.69953 387.50078 546.09992 383.10078 547.39992 377.00078 L 561.7007 307.50078 C 562.5007 303.60078 561.49953 299.60078 558.99953 296.50078 C 556.49953 293.50078 552.80031 291.7 548.80031 291.7 L 508.09914 291.7 z M 504.80031 297.50078 L 545.49953 297.50078 C 546.49953 297.50078 547.5007 297.99961 548.2007 298.79961 C 548.8007 299.59961 549.09992 300.7 548.89992 301.7 L 534.7007 371.2 C 534.4007 372.8 532.90031 374.00078 531.30031 374.00078 L 500.99953 374.00078 C 499.09953 374.00078 497.49953 372.40078 497.49953 370.50078 C 497.49953 368.60078 499.09953 367.00078 500.99953 367.00078 L 528.49953 367.00078 L 541.30031 304.39922 L 507.7007 304.39922 L 487.09914 401.7 L 521.80031 401.7 C 523.70031 401.7 525.30031 403.3 525.30031 405.2 C 525.30031 407.1 523.70031 408.60039 521.80031 408.60039 L 482.80031 408.60039 C 481.80031 408.60039 480.69914 408.09961 480.09914 407.29961 C 479.49914 406.49961 479.19992 405.39922 479.39992 404.39922 L 501.39992 300.2 C 501.69992 298.6 503.20031 297.50078 504.80031 297.50078 z M 518.80031 318.10039 L 532.59914 318.10039 L 523.7007 361.2 L 509.59914 361.2 L 518.80031 318.10039 z "
         style="fill:#ffffff" /></g><g
       id="L"
       style="fill:#ffffff"><path
         id="path5"
         d="M 580.95266 291.71562 C 574.83586 291.68828 569.31203 295.9875 567.99953 302.2 L 546.39992 406.50078 C 545.59992 410.40078 546.59914 414.40078 549.09914 417.50078 C 551.59914 420.50078 555.30031 422.29961 559.30031 422.29961 L 607.39992 422.29961 C 614.69992 422.29961 620.69914 416.4 620.59914 409.2 C 620.59914 401.9 614.69992 396.00078 607.39992 396.00078 L 575.49953 396.00078 L 593.80031 307.60039 C 595.30031 300.50039 590.69914 293.50078 583.59914 292.00078 C 582.71164 291.81328 581.82648 291.71953 580.95266 291.71562 z M 577.79445 297.42266 C 578.02629 297.42441 578.26203 297.45078 578.49953 297.50078 C 580.39953 297.90078 581.6007 299.70039 581.2007 301.60039 L 560.39992 401.7 L 604.30031 401.7 C 606.20031 401.7 607.80031 403.3 607.80031 405.2 C 607.80031 407.1 606.20031 408.60039 604.30031 408.60039 L 556.2007 408.60039 C 555.2007 408.60039 554.09953 408.09961 553.49953 407.29961 C 552.89953 406.49961 552.60031 405.39922 552.80031 404.39922 L 574.39992 300.2 C 574.74992 298.5375 576.1716 297.41035 577.79445 297.42266 z "
         style="fill:#ffffff" /></g><g
       id="A"
       style="fill:#ffffff"><path
         id="path7"
         d="M 661.59914 291.7 C 654.29914 291.7 648.39992 297.59922 648.39992 304.89922 C 648.39992 312.19922 654.29914 318.10039 661.59914 318.10039 L 684.30031 318.10039 L 682.49953 326.50078 L 652.09914 326.50078 C 645.89914 326.50078 640.5007 330.90078 639.2007 337.00078 L 624.99953 406.50078 C 624.19953 410.40078 625.2007 414.40078 627.7007 417.50078 C 630.2007 420.50078 633.89992 422.29961 637.89992 422.29961 L 678.59914 422.29961 C 684.79914 422.29961 690.19992 417.89961 691.39992 411.79961 L 713.39992 307.60039 C 714.29992 303.70039 713.30031 299.70039 710.80031 296.60039 C 708.30031 293.50039 704.59914 291.7 700.59914 291.7 L 661.59914 291.7 z M 658.49953 297.39922 L 697.49953 297.39922 C 698.49953 297.39922 699.6007 297.9 700.2007 298.7 C 700.8007 299.5 701.09992 300.60039 700.89992 301.60039 L 678.89992 405.79961 C 678.49992 407.49961 677.09992 408.60039 675.39992 408.60039 L 634.7007 408.60039 C 633.7007 408.60039 632.69953 408.09961 631.99953 407.29961 C 631.39953 406.49961 631.10031 405.39922 631.30031 404.39922 L 645.49953 334.89922 C 645.79953 333.29922 647.29992 332.10039 648.89992 332.10039 L 678.59914 332.10039 C 680.49914 332.10039 682.09914 333.70039 682.09914 335.60039 C 682.09914 337.50039 680.49914 339.10039 678.59914 339.10039 L 651.80031 339.10039 L 638.99953 401.7 L 672.59914 401.7 L 693.2007 304.39922 L 658.49953 304.39922 C 656.59953 304.39922 654.99953 302.79922 654.99953 300.89922 C 654.99953 298.99922 656.59953 297.39922 658.49953 297.39922 z M 662.80031 352.79961 L 676.89992 352.79961 L 667.80031 395.89922 L 653.99953 395.89922 L 662.80031 352.79961 z "
         style="fill:#ffffff" /></g></g><g
     id="bela.io"
     transform="translate(-350.23 -241.7)"
     style="fill:#ffffff"><path
       d="m497.7 453.6h-3.8v-21.1h3.8v8.3h0.5c0.4-0.8 1-1.5 1.8-1.9 0.8-0.5 1.7-0.7 2.9-0.7 0.9 0 1.7 0.2 2.5 0.5s1.5 0.8 2.1 1.5 1.1 1.5 1.4 2.4c0.4 0.9 0.5 2 0.5 3.2v0.5c0 1.2-0.2 2.3-0.5 3.3-0.3 0.9-0.8 1.7-1.4 2.4s-1.3 1.1-2.1 1.5c-0.8 0.3-1.7 0.5-2.6 0.5-0.7 0-1.3-0.1-1.8-0.2s-0.9-0.3-1.3-0.6c-0.4-0.2-0.7-0.5-0.9-0.8-0.3-0.3-0.5-0.6-0.6-1h-0.5zm4-3.2c1.2 0 2.1-0.4 2.9-1.1 0.7-0.7 1.1-1.7 1.1-3v-0.3c0-1.3-0.4-2.3-1.1-3s-1.7-1.1-2.9-1.1-2.1 0.4-2.9 1.1c-0.7 0.8-1.1 1.7-1.1 3v0.4c0 1.2 0.4 2.2 1.1 3 0.7 0.6 1.7 1 2.9 1z"
       id="path9"
       style="fill:#ffffff" /><path
       d="m516.3 447.4c0 0.4 0.1 0.9 0.3 1.2 0.2 0.4 0.5 0.7 0.8 1s0.7 0.5 1.1 0.6c0.4 0.2 0.9 0.2 1.4 0.2 0.9 0 1.7-0.2 2.2-0.5s0.9-0.7 1.1-1.2l3.3 1.8c-0.2 0.4-0.4 0.8-0.8 1.2-0.3 0.4-0.7 0.8-1.3 1.1s-1.1 0.6-1.9 0.8c-0.7 0.2-1.6 0.3-2.6 0.3-1.1 0-2.2-0.2-3.1-0.5-0.9-0.4-1.7-0.9-2.4-1.6s-1.2-1.5-1.6-2.5-0.6-2.1-0.6-3.4v-0.2c0-1.1 0.2-2.2 0.6-3.1s0.9-1.8 1.6-2.4c0.7-0.7 1.5-1.2 2.4-1.6s1.9-0.6 2.9-0.6c1.3 0 2.4 0.2 3.3 0.7s1.7 1 2.3 1.7 1 1.5 1.3 2.3 0.4 1.6 0.4 2.4v2h-10.7zm3.6-5.7c-1 0-1.8 0.2-2.4 0.7s-1 1.1-1.2 1.7h7.1c-0.1-0.7-0.5-1.3-1.1-1.8-0.6-0.4-1.4-0.6-2.4-0.6z"
       id="path10"
       style="fill:#ffffff" /><path
       d="m531.4 450h5.3v-13.9h-5.1v-3.6h8.9v17.5h4.9v3.6h-14z"
       id="path11"
       style="fill:#ffffff" /><path
       d="m559.7 451.5c-0.4 0.9-1 1.6-1.7 2s-1.6 0.6-2.5 0.6-1.8-0.2-2.6-0.5-1.5-0.8-2.1-1.5-1.1-1.5-1.4-2.4c-0.4-0.9-0.5-2-0.5-3.2v-0.5c0-1.2 0.2-2.3 0.5-3.2s0.8-1.8 1.4-2.4c0.6-0.7 1.3-1.2 2-1.5s1.6-0.5 2.5-0.5c1.1 0 1.9 0.2 2.6 0.5 0.7 0.4 1.2 0.9 1.6 1.7h0.5v-1.8h3.8v10.5c0 0.6 0.3 0.9 0.8 0.9h0.6v3.6h-2.6c-0.7 0-1.2-0.2-1.7-0.6-0.4-0.4-0.6-0.9-0.6-1.6h-0.6zm-3.4-1.1c1.1 0 2-0.4 2.7-1.1s1-1.7 1-3v-0.3c0-1.3-0.3-2.3-1-3s-1.6-1.1-2.7-1.1-2 0.4-2.7 1.1-1 1.7-1 3v0.4c0 1.3 0.3 2.3 1 3s1.6 1 2.7 1z"
       id="path12"
       style="fill:#ffffff" /><path
       d="m578.2 451.2c0 0.4-0.1 0.8-0.2 1.1-0.2 0.4-0.4 0.7-0.6 0.9-0.3 0.3-0.6 0.5-0.9 0.6s-0.7 0.2-1.1 0.2-0.8-0.1-1.1-0.2l-0.9-0.6c-0.3-0.3-0.5-0.6-0.6-0.9-0.2-0.4-0.2-0.7-0.2-1.1s0.1-0.8 0.2-1.1c0.2-0.4 0.4-0.7 0.6-0.9 0.3-0.3 0.6-0.5 0.9-0.6 0.3-0.2 0.7-0.2 1.1-0.2s0.8 0.1 1.1 0.2 0.7 0.4 0.9 0.6 0.5 0.6 0.6 0.9 0.2 0.7 0.2 1.1z"
       id="path13"
       style="fill:#ffffff" /><path
       d="m587.2 450h5.1v-7.7h-4.7v-3.6h8.5v11.3h4.4v3.6h-13.2v-3.6zm9.8-15.8c0 0.4-0.1 0.8-0.2 1.1-0.2 0.4-0.4 0.7-0.6 0.9s-0.6 0.5-0.9 0.6c-0.4 0.2-0.7 0.2-1.1 0.2s-0.8-0.1-1.1-0.2l-0.9-0.6c-0.3-0.2-0.5-0.6-0.6-0.9-0.2-0.4-0.2-0.7-0.2-1.1s0.1-0.8 0.2-1.1c0.2-0.4 0.4-0.7 0.6-0.9s0.6-0.5 0.9-0.6 0.7-0.2 1.1-0.2 0.8 0.1 1.1 0.2c0.4 0.2 0.7 0.4 0.9 0.6s0.5 0.6 0.6 0.9c0.2 0.3 0.2 0.7 0.2 1.1z"
       id="path14"
       style="fill:#ffffff" /><path
       d="m620.1 446.3c0 1.2-0.2 2.4-0.6 3.3-0.4 1-1 1.8-1.7 2.4-0.7 0.7-1.6 1.2-2.5 1.5s-1.9 0.5-2.9 0.5-2-0.2-2.9-0.5-1.8-0.8-2.5-1.5-1.3-1.5-1.7-2.4c-0.4-1-0.6-2.1-0.6-3.3v-0.3c0-1.2 0.2-2.3 0.6-3.3s1-1.8 1.7-2.4c0.7-0.7 1.6-1.2 2.5-1.5s1.9-0.5 2.9-0.5 2 0.2 2.9 0.5 1.8 0.8 2.5 1.5 1.3 1.5 1.7 2.4c0.4 1 0.6 2 0.6 3.3zm-7.8 4.1c0.5 0 1.1-0.1 1.5-0.3 0.5-0.2 0.9-0.4 1.3-0.8 0.4-0.3 0.6-0.8 0.9-1.3 0.2-0.5 0.3-1.1 0.3-1.7v-0.6c0-0.6-0.1-1.2-0.3-1.7s-0.5-0.9-0.9-1.3c-0.4-0.3-0.8-0.6-1.3-0.8s-1-0.3-1.5-0.3-1.1 0.1-1.5 0.3c-0.5 0.2-0.9 0.4-1.3 0.8-0.4 0.3-0.6 0.8-0.9 1.3-0.2 0.5-0.3 1.1-0.3 1.7v0.6c0 0.6 0.1 1.2 0.3 1.7s0.5 0.9 0.9 1.3c0.4 0.3 0.8 0.6 1.3 0.8s1 0.3 1.5 0.3z"
       id="path15"
       style="fill:#ffffff" /></g></svg>
