<?xml version="1.0" encoding="UTF-8" standalone="no"?>
<svg
   width="413.4"
   height="268.2"
   version="1.1"
   viewBox="0 0 413.4 268.2"
   xml:space="preserve"
   id="svg15"
   sodipodi:docname="bela_logo_white_text_right.svg"
   inkscape:version="1.4.2 (1:1.4.2+202505120737+ebf0e940d0)"
   xmlns:inkscape="http://www.inkscape.org/namespaces/inkscape"
   xmlns:sodipodi="http://sodipodi.sourceforge.net/DTD/sodipodi-0.dtd"
   xmlns="http://www.w3.org/2000/svg"
   xmlns:svg="http://www.w3.org/2000/svg"><defs
     id="defs15" /><sodipodi:namedview
     id="namedview15"
     pagecolor="#000000"
     bordercolor="#000000"
     borderopacity="0.25"
     inkscape:showpageshadow="2"
     inkscape:pageopacity="0.0"
     inkscape:pagecheckerboard="0"
     inkscape:deskcolor="#d1d1d1"
     inkscape:zoom="2.1967013"
     inkscape:cx="99.239711"
     inkscape:cy="125.87055"
     inkscape:window-width="2560"
     inkscape:window-height="1528"
     inkscape:window-x="0"
     inkscape:window-y="0"
     inkscape:window-maximized="1"
     inkscape:current-layer="B" /><style
     id="style"
     type="text/css">.st0{fill:#FFFFFF;}</style><g
     transform="translate(-293.73 -241.7)"
     id="g15"><g
       id="B"><path
         id="path1"
         d="M 378.62453 291.81719 C 372.45988 291.78984 367.0132 296.08711 365.7007 302.29961 L 343.99953 406.50078 C 343.19953 410.40078 344.2007 414.40078 346.7007 417.50078 C 349.2007 420.50078 352.89992 422.29961 356.89992 422.29961 L 397.59914 422.29961 C 403.89914 422.29961 409.19914 417.89922 410.59914 411.89922 L 424.89992 342.39922 C 425.69992 338.49922 424.7007 334.49922 422.2007 331.39922 C 419.7007 328.39922 415.99953 326.60039 411.99953 326.60039 L 387.59914 326.60039 L 391.49953 307.7 C 392.99953 300.6 388.40031 293.60039 381.30031 292.10039 C 380.40031 291.91289 379.5052 291.82109 378.62453 291.81719 z M 375.39406 297.42266 C 375.6259 297.42441 375.86164 297.45078 376.09914 297.50078 C 377.99914 297.90078 379.20031 299.70039 378.80031 301.60039 L 357.99953 401.7 L 391.59914 401.7 L 404.49953 339.10039 L 378.30031 339.10039 C 376.40031 339.10039 374.80031 337.50039 374.80031 335.60039 C 374.80031 333.70039 376.40031 332.10039 378.30031 332.10039 L 408.80031 332.10039 C 409.80031 332.10039 410.79953 332.59922 411.49953 333.39922 C 412.09953 334.19922 412.4007 335.29961 412.2007 336.29961 L 397.89992 405.79961 C 397.49992 407.39961 396.09953 408.60039 394.49953 408.60039 L 353.80031 408.60039 C 352.80031 408.60039 351.69914 408.09961 351.09914 407.29961 C 350.49914 406.49961 350.19992 405.39922 350.39992 404.39922 L 371.99953 300.2 C 372.34953 298.5375 373.77121 297.41035 375.39406 297.42266 z M 381.99953 352.79961 L 395.80031 352.79961 L 386.89992 395.89922 L 373.09914 395.89922 L 381.99953 352.79961 z "
         style="fill:#ffffff" /></g><g
       id="E"
       style="fill:#ffffff"><path
         id="path3"
         d="M 451.49953 291.7 C 445.29953 291.7 439.89914 296.1 438.59914 302.2 L 416.59914 406.39922 C 415.69914 410.29922 416.7007 414.29922 419.2007 417.39922 C 421.7007 420.49922 425.39992 422.29961 429.39992 422.29961 L 468.39992 422.29961 C 475.69992 422.29961 481.59914 416.40039 481.59914 409.10039 C 481.59914 401.80039 475.69992 395.89922 468.39992 395.89922 L 445.7007 395.89922 L 447.49953 387.50078 L 477.99953 387.50078 C 484.19953 387.50078 489.59992 383.10078 490.89992 377.00078 L 505.09914 307.50078 C 505.89914 303.60078 504.89992 299.60078 502.39992 296.50078 C 499.89992 293.50078 496.2007 291.7 492.2007 291.7 L 451.49953 291.7 z M 448.2007 297.50078 L 488.99953 297.50078 C 489.99953 297.50078 491.0007 297.99961 491.7007 298.79961 C 492.3007 299.59961 492.59992 300.7 492.39992 301.7 L 478.2007 371.2 C 477.9007 372.8 476.40031 374.00078 474.80031 374.00078 L 444.49953 374.00078 C 442.59953 374.00078 440.99953 372.40078 440.99953 370.50078 C 440.99953 368.60078 442.59953 367.00078 444.49953 367.00078 L 471.99953 367.00078 L 484.80031 304.39922 L 451.2007 304.39922 L 430.59914 401.7 L 465.30031 401.7 C 467.20031 401.7 468.80031 403.3 468.80031 405.2 C 468.70031 407.1 467.2007 408.60039 465.2007 408.60039 L 426.2007 408.60039 C 425.2007 408.60039 424.09953 408.09961 423.49953 407.29961 C 422.89953 406.49961 422.60031 405.39922 422.80031 404.39922 L 444.80031 300.2 C 445.10031 298.6 446.6007 297.50078 448.2007 297.50078 z M 462.2007 318.10039 L 475.99953 318.10039 L 467.09914 361.2 L 452.99953 361.2 L 462.2007 318.10039 z "
         style="fill:#ffffff" /></g><g
       id="L"
       style="fill:#ffffff"><path
         id="path5"
         d="M 524.45266 291.81719 C 518.33586 291.78984 512.81203 296.08711 511.49953 302.29961 L 489.89992 406.50078 C 489.09992 410.40078 490.09914 414.40078 492.59914 417.50078 C 495.09914 420.50078 498.80031 422.29961 502.80031 422.29961 L 550.89992 422.29961 C 558.19992 422.29961 564.09914 416.40039 564.09914 409.10039 C 564.09914 401.80039 558.19992 395.89922 550.89992 395.89922 L 518.99953 395.89922 L 537.30031 307.7 C 538.80031 300.6 534.19914 293.60039 527.09914 292.10039 C 526.21164 291.91289 525.32648 291.82109 524.45266 291.81719 z M 521.29445 297.42266 C 521.52629 297.42441 521.76203 297.45078 521.99953 297.50078 C 523.89953 297.90078 525.1007 299.70039 524.7007 301.60039 L 503.99953 401.7 L 547.89992 401.7 C 549.79992 401.7 551.39992 403.3 551.39992 405.2 C 551.29992 407.1 549.70031 408.60039 547.80031 408.60039 L 499.7007 408.60039 C 498.7007 408.60039 497.59953 408.09961 496.99953 407.29961 C 496.39953 406.49961 496.10031 405.39922 496.30031 404.39922 L 517.89992 300.2 C 518.24992 298.5375 519.6716 297.41035 521.29445 297.42266 z "
         style="fill:#ffffff" /></g><g
       id="A"
       style="fill:#ffffff"><path
         id="path7"
         d="M 604.99953 291.7 C 597.69953 291.7 591.80031 297.59922 591.80031 304.89922 C 591.80031 312.19922 597.69953 318.10039 604.99953 318.10039 L 627.7007 318.10039 L 625.89992 326.50078 L 595.49953 326.50078 C 589.29953 326.50078 583.89914 330.90078 582.59914 337.00078 L 568.39992 406.50078 C 567.59992 410.40078 568.59914 414.40078 571.09914 417.50078 C 573.59914 420.50078 577.30031 422.29961 581.30031 422.29961 L 621.99953 422.29961 C 628.29953 422.29961 633.60031 417.89961 634.80031 411.79961 L 656.80031 307.60039 C 657.70031 303.70039 656.7007 299.70039 654.2007 296.60039 C 651.7007 293.50039 647.99953 291.7 643.99953 291.7 L 604.99953 291.7 z M 601.89992 297.39922 L 640.89992 297.39922 C 641.89992 297.39922 642.99914 297.9 643.59914 298.7 C 644.19914 299.5 644.50031 300.60039 644.30031 301.60039 L 622.30031 405.79961 C 621.90031 407.49961 620.49992 408.60039 618.89992 408.60039 L 578.2007 408.60039 C 577.2007 408.60039 576.19953 408.09961 575.49953 407.29961 C 574.89953 406.49961 574.60031 405.39922 574.80031 404.39922 L 588.99953 334.89922 C 589.29953 333.29922 590.79992 332.10039 592.39992 332.10039 L 621.99953 332.10039 C 623.89953 332.10039 625.49953 333.70039 625.49953 335.60039 C 625.49953 337.50039 623.89953 339.10039 621.99953 339.10039 L 595.2007 339.10039 L 582.39992 401.7 L 615.99953 401.7 L 636.59914 304.39922 L 601.89992 304.39922 C 599.99992 304.39922 598.39992 302.79922 598.39992 300.89922 C 598.39992 298.99922 599.99992 297.39922 601.89992 297.39922 z M 606.30031 352.79961 L 620.39992 352.79961 L 611.30031 395.89922 L 597.49953 395.89922 L 606.30031 352.79961 z "
         style="fill:#ffffff" /></g><g
       id="bela.io"
       style="fill:#ffffff"><path
         d="m496.5 459.5h-3.8v-21.1h3.8v8.3h0.5c0.4-0.8 1-1.5 1.8-1.9 0.8-0.5 1.7-0.7 2.9-0.7 0.9 0 1.7 0.2 2.5 0.5s1.5 0.8 2.1 1.5 1.1 1.5 1.4 2.4c0.4 0.9 0.5 2 0.5 3.2v0.5c0 1.2-0.2 2.3-0.5 3.3-0.3 0.9-0.8 1.7-1.4 2.4s-1.3 1.1-2.1 1.5c-0.8 0.3-1.7 0.5-2.6 0.5-0.7 0-1.3-0.1-1.8-0.2s-0.9-0.3-1.3-0.6c-0.4-0.2-0.7-0.5-0.9-0.8-0.3-0.3-0.5-0.6-0.6-1h-0.5zm4-3.2c1.2 0 2.1-0.4 2.9-1.1 0.7-0.7 1.1-1.7 1.1-3v-0.4c0-1.3-0.4-2.3-1.1-3s-1.7-1.1-2.9-1.1-2.1 0.4-2.9 1.1c-0.7 0.8-1.1 1.7-1.1 3v0.4c0 1.2 0.4 2.2 1.1 3 0.8 0.7 1.7 1.1 2.9 1.1z"
         id="path9"
         style="fill:#ffffff" /><path
         d="m515.2 453.3c0 0.4 0.1 0.9 0.3 1.2s0.5 0.7 0.8 1 0.7 0.5 1.1 0.6c0.4 0.2 0.9 0.2 1.4 0.2 0.9 0 1.7-0.2 2.2-0.5s0.9-0.7 1.1-1.2l3.3 1.8c-0.2 0.4-0.4 0.8-0.8 1.2-0.3 0.4-0.7 0.8-1.3 1.1s-1.1 0.6-1.9 0.8c-0.7 0.2-1.6 0.3-2.6 0.3-1.1 0-2.2-0.2-3.1-0.5s-1.7-0.9-2.4-1.6-1.2-1.5-1.6-2.5-0.6-2.1-0.6-3.4v-0.2c0-1.1 0.2-2.2 0.6-3.1s0.9-1.8 1.6-2.4c0.7-0.7 1.5-1.2 2.4-1.6s1.9-0.6 2.9-0.6c1.3 0 2.4 0.2 3.3 0.7s1.7 1 2.3 1.7 1 1.5 1.3 2.3 0.4 1.6 0.4 2.4v2h-10.7zm3.6-5.7c-1 0-1.8 0.2-2.4 0.7s-1 1.1-1.2 1.7h7.1c-0.1-0.7-0.5-1.3-1.1-1.8-0.6-0.4-1.4-0.6-2.4-0.6z"
         id="path10"
         style="fill:#ffffff" /><path
         d="m530.2 455.9h5.3v-13.9h-5.1v-3.6h8.9v17.5h4.9v3.6h-14z"
         id="path11"
         style="fill:#ffffff" /><path
         d="m558.5 457.3c-0.4 0.9-1 1.6-1.7 2s-1.6 0.6-2.5 0.6-1.8-0.2-2.6-0.5-1.5-0.8-2.1-1.5-1.1-1.5-1.4-2.4c-0.4-0.9-0.5-2-0.5-3.2v-0.5c0-1.2 0.2-2.3 0.5-3.2s0.8-1.8 1.4-2.4c0.6-0.7 1.3-1.2 2-1.5s1.6-0.5 2.5-0.5c1.1 0 1.9 0.2 2.6 0.5 0.7 0.4 1.2 0.9 1.6 1.7h0.5v-1.8h3.8v10.4c0 0.6 0.3 0.9 0.8 0.9h0.6v3.6h-2.6c-0.7 0-1.2-0.2-1.7-0.6-0.4-0.4-0.6-0.9-0.6-1.6zm-3.4-1c1.1 0 2-0.4 2.7-1.1s1-1.7 1-3v-0.4c0-1.3-0.3-2.3-1-3s-1.6-1.1-2.7-1.1-2 0.4-2.7 1.1-1 1.7-1 3v0.4c0 1.3 0.3 2.3 1 3 0.7 0.8 1.6 1.1 2.7 1.1z"
         id="path12"
         style="fill:#ffffff" /><path
         d="m577.1 457.1c0 0.4-0.1 0.8-0.2 1.1-0.2 0.4-0.4 0.7-0.6 0.9-0.3 0.3-0.6 0.5-0.9 0.6-0.4 0.2-0.7 0.2-1.1 0.2s-0.8-0.1-1.1-0.2l-0.9-0.6c-0.3-0.3-0.5-0.6-0.6-0.9-0.2-0.4-0.2-0.7-0.2-1.1s0.1-0.8 0.2-1.1c0.2-0.4 0.4-0.7 0.6-0.9s0.6-0.5 0.9-0.6c0.3-0.2 0.7-0.2 1.1-0.2s0.8 0.1 1.1 0.2c0.4 0.2 0.7 0.4 0.9 0.6s0.5 0.6 0.6 0.9 0.2 0.7 0.2 1.1z"
         id="path13"
         style="fill:#ffffff" /><path
         d="m586.1 455.9h5.1v-7.7h-4.7v-3.6h8.5v11.4h4.4v3.6h-13.2v-3.7zm9.8-15.8c0 0.4-0.1 0.8-0.2 1.1-0.2 0.4-0.4 0.7-0.6 0.9-0.3 0.3-0.6 0.5-0.9 0.6-0.4 0.2-0.7 0.2-1.1 0.2s-0.8-0.1-1.1-0.2l-0.9-0.6c-0.3-0.2-0.5-0.6-0.6-0.9-0.2-0.4-0.2-0.7-0.2-1.1s0.1-0.8 0.2-1.1c0.2-0.4 0.4-0.7 0.6-0.9s0.6-0.5 0.9-0.6c0.3-0.2 0.7-0.2 1.1-0.2s0.8 0.1 1.1 0.2c0.4 0.2 0.7 0.4 0.9 0.6 0.3 0.3 0.5 0.6 0.6 0.9s0.2 0.7 0.2 1.1z"
         id="path14"
         style="fill:#ffffff" /><path
         d="m619 452.2c0 1.2-0.2 2.4-0.6 3.3-0.4 1-1 1.8-1.7 2.4s-1.6 1.2-2.5 1.5-1.9 0.5-2.9 0.5-2-0.2-2.9-0.5-1.8-0.8-2.5-1.5-1.3-1.5-1.7-2.4c-0.4-1-0.6-2.1-0.6-3.3v-0.4c0-1.2 0.2-2.3 0.6-3.3s1-1.8 1.7-2.4c0.7-0.7 1.6-1.2 2.5-1.5s1.9-0.5 2.9-0.5 2 0.2 2.9 0.5 1.8 0.8 2.5 1.5 1.3 1.5 1.7 2.4c0.4 1 0.6 2 0.6 3.3zm-7.8 4.1c0.5 0 1.1-0.1 1.5-0.3 0.5-0.2 0.9-0.4 1.3-0.8 0.4-0.3 0.6-0.8 0.9-1.3 0.2-0.5 0.3-1.1 0.3-1.7v-0.6c0-0.6-0.1-1.2-0.3-1.7s-0.5-0.9-0.9-1.3c-0.4-0.3-0.8-0.6-1.3-0.8s-1-0.3-1.5-0.3-1.1 0.1-1.5 0.3c-0.5 0.2-0.9 0.4-1.3 0.8-0.4 0.3-0.6 0.8-0.9 1.3s-0.3 1.1-0.3 1.7v0.6c0 0.6 0.1 1.2 0.3 1.7s0.5 0.9 0.9 1.3c0.4 0.3 0.8 0.6 1.3 0.8 0.4 0.2 0.9 0.3 1.5 0.3z"
         id="path15"
         style="fill:#ffffff" /></g></g></svg>
