<?xml version="1.0" encoding="UTF-8" standalone="no"?>
<svg
   width="413.5"
   height="230.6"
   version="1.1"
   viewBox="0 0 413.5 230.6"
   xml:space="preserve"
   id="svg8"
   sodipodi:docname="bela_logo_white.svg"
   inkscape:version="1.4.2 (1:1.4.2+202505120737+ebf0e940d0)"
   xmlns:inkscape="http://www.inkscape.org/namespaces/inkscape"
   xmlns:sodipodi="http://sodipodi.sourceforge.net/DTD/sodipodi-0.dtd"
   xmlns="http://www.w3.org/2000/svg"
   xmlns:svg="http://www.w3.org/2000/svg"><defs
     id="defs8" /><sodipodi:namedview
     id="namedview8"
     pagecolor="#000000"
     bordercolor="#000000"
     borderopacity="0.25"
     inkscape:showpageshadow="2"
     inkscape:pageopacity="0.0"
     inkscape:pagecheckerboard="0"
     inkscape:deskcolor="#d1d1d1"
     inkscape:zoom="3.7281907"
     inkscape:cx="180.24829"
     inkscape:cy="129.41935"
     inkscape:window-width="2560"
     inkscape:window-height="1528"
     inkscape:window-x="0"
     inkscape:window-y="0"
     inkscape:window-maximized="1"
     inkscape:current-layer="BELA" /><style
     type="text/css"
     id="style1">
	.st0{fill:#FFFFFF;}
</style><g
     id="BELA"
     transform="translate(-321.33 -241.7)"><g
       id="B"
       style="fill:#ffffff"><path
         id="path1"
         d="M 406.22453 291.81719 C 400.05988 291.78984 394.6132 296.08711 393.3007 302.29961 L 371.59953 406.50078 C 370.79953 410.40078 371.8007 414.40078 374.3007 417.50078 C 376.8007 420.50078 380.49992 422.29961 384.49992 422.29961 L 425.19914 422.29961 C 431.49914 422.29961 436.89914 417.89922 438.19914 411.89922 L 452.49992 342.39922 C 453.29992 338.49922 452.3007 334.49922 449.8007 331.39922 C 447.3007 328.39922 443.59953 326.60039 439.59953 326.60039 L 415.19914 326.60039 L 419.09953 307.7 C 420.59953 300.6 416.00031 293.60039 408.90031 292.10039 C 408.00031 291.91289 407.1052 291.82109 406.22453 291.81719 z M 402.99406 297.32305 C 403.2259 297.3248 403.46164 297.34922 403.69914 297.39922 C 405.59914 297.79922 406.80031 299.60078 406.40031 301.50078 L 385.59953 401.60039 L 419.19914 401.60039 L 432.09953 339.00078 L 405.90031 339.00078 C 404.00031 339.00078 402.40031 337.40078 402.40031 335.50078 C 402.40031 333.60078 404.00031 332.00078 405.90031 332.00078 L 436.40031 332.00078 C 437.40031 332.00078 438.39953 332.49961 439.09953 333.29961 C 439.69953 334.09961 440.0007 335.2 439.8007 336.2 L 425.49992 405.7 C 425.19992 407.4 423.69953 408.60039 422.09953 408.60039 L 381.40031 408.60039 C 380.40031 408.60039 379.29914 408.09961 378.69914 407.29961 C 378.09914 406.49961 377.79992 405.39922 377.99992 404.39922 L 399.59953 300.10039 C 399.94953 298.43789 401.37121 297.31074 402.99406 297.32305 z M 409.59953 352.79961 L 423.40031 352.79961 L 414.49992 395.89922 L 400.69914 395.89922 L 409.59953 352.79961 z "
         style="fill:#ffffff" /></g><g
       id="E"
       style="fill:#ffffff"><path
         id="path3"
         d="M 479.09953 291.7 C 472.89953 291.7 467.49914 296.1 466.19914 302.2 L 444.19914 406.39922 C 443.29914 410.29922 444.3007 414.29922 446.8007 417.39922 C 449.3007 420.49922 452.99992 422.29961 456.99992 422.29961 L 495.99992 422.29961 C 503.29992 422.29961 509.19914 416.40039 509.19914 409.10039 C 509.19914 401.80039 503.29992 395.89922 495.99992 395.89922 L 473.3007 395.89922 L 475.09953 387.50078 L 505.59953 387.50078 C 511.79953 387.50078 517.19992 383.10078 518.49992 377.00078 L 532.69914 307.50078 C 533.49914 303.60078 532.49992 299.60078 529.99992 296.50078 C 527.49992 293.50078 523.8007 291.7 519.8007 291.7 L 479.09953 291.7 z M 475.90031 297.50078 L 516.59953 297.50078 C 517.59953 297.50078 518.6007 297.99961 519.3007 298.79961 C 519.9007 299.59961 520.19992 300.7 519.99992 301.7 L 505.8007 371.2 C 505.5007 372.8 504.00031 374.00078 502.40031 374.00078 L 472.09953 374.00078 C 470.19953 374.00078 468.59953 372.40078 468.59953 370.50078 C 468.59953 368.60078 470.19953 367.00078 472.09953 367.00078 L 499.59953 367.00078 L 512.40031 304.39922 L 478.8007 304.39922 L 458.19914 401.7 L 492.90031 401.7 C 494.80031 401.7 496.40031 403.3 496.40031 405.2 C 496.30031 407.1 494.80031 408.60039 492.90031 408.60039 L 453.90031 408.60039 C 452.90031 408.60039 451.79914 408.09961 451.19914 407.29961 C 450.59914 406.49961 450.29992 405.39922 450.49992 404.39922 L 472.49992 300.2 C 472.79992 298.6 474.30031 297.50078 475.90031 297.50078 z M 489.90031 318.10039 L 503.69914 318.10039 L 494.8007 361.2 L 480.69914 361.2 L 489.90031 318.10039 z "
         style="fill:#ffffff" /></g><g
       id="L"
       style="fill:#ffffff"><path
         id="path5"
         d="M 552.05266 291.81719 C 545.93586 291.78984 540.41203 296.08711 539.09953 302.29961 L 517.49992 406.50078 C 516.69992 410.40078 517.69914 414.40078 520.19914 417.50078 C 522.69914 420.50078 526.40031 422.29961 530.40031 422.29961 L 578.49992 422.29961 C 585.79992 422.29961 591.79914 416.39961 591.69914 409.29961 C 591.69914 401.99961 585.79992 396.10039 578.49992 396.10039 L 546.59953 396.10039 L 564.90031 307.7 C 566.40031 300.6 561.79914 293.60039 554.69914 292.10039 C 553.81164 291.91289 552.92648 291.82109 552.05266 291.81719 z M 548.89445 297.42266 C 549.12629 297.42441 549.36203 297.45078 549.59953 297.50078 C 551.49953 297.90078 552.7007 299.70039 552.3007 301.60039 L 531.49992 401.7 L 575.40031 401.7 C 577.30031 401.7 578.90031 403.3 578.90031 405.2 C 578.90031 407.1 577.30031 408.60039 575.40031 408.60039 L 527.3007 408.60039 C 526.3007 408.60039 525.19953 408.09961 524.59953 407.29961 C 523.99953 406.49961 523.70031 405.39922 523.90031 404.39922 L 545.49992 300.2 C 545.84992 298.5375 547.2716 297.41035 548.89445 297.42266 z "
         style="fill:#ffffff" /></g><g
       id="A"
       style="fill:#ffffff"><path
         id="path7"
         d="M 632.69914 291.7 C 625.39914 291.7 619.49992 297.59922 619.49992 304.89922 C 619.49992 312.19922 625.39914 318.10039 632.69914 318.10039 L 655.40031 318.10039 L 653.59953 326.50078 L 623.19914 326.50078 C 616.99914 326.50078 611.6007 330.90078 610.3007 337.00078 L 596.09953 406.50078 C 595.29953 410.40078 596.3007 414.40078 598.8007 417.50078 C 601.3007 420.50078 604.99992 422.29961 608.99992 422.29961 L 649.69914 422.29961 C 655.89914 422.29961 661.29992 417.89961 662.49992 411.79961 L 684.49992 307.60039 C 685.39992 303.70039 684.40031 299.70039 681.90031 296.60039 C 679.40031 293.50039 675.69914 291.7 671.69914 291.7 L 632.69914 291.7 z M 629.49992 297.39922 L 668.49992 297.39922 C 669.49992 297.39922 670.59914 297.9 671.19914 298.7 C 671.79914 299.5 672.10031 300.60039 671.90031 301.60039 L 649.90031 405.79961 C 649.60031 407.49961 648.09992 408.60039 646.49992 408.60039 L 605.8007 408.60039 C 604.8007 408.60039 603.79953 408.09961 603.09953 407.29961 C 602.49953 406.49961 602.20031 405.39922 602.40031 404.39922 L 616.59953 334.89922 C 616.89953 333.29922 618.39992 332.10039 619.99992 332.10039 L 649.69914 332.10039 C 651.59914 332.10039 653.19914 333.70039 653.19914 335.60039 C 653.19914 337.50039 651.59914 339.10039 649.69914 339.10039 L 622.90031 339.10039 L 609.99992 401.7 L 643.59953 401.7 L 664.19914 304.39922 L 629.49992 304.39922 C 627.59992 304.39922 625.99992 302.79922 625.99992 300.89922 C 625.99992 298.99922 627.59992 297.39922 629.49992 297.39922 z M 633.90031 352.79961 L 647.99992 352.79961 L 638.90031 395.89922 L 625.09953 395.89922 L 633.90031 352.79961 z "
         style="fill:#ffffff" /></g></g></svg>
